<?xml version="1.0" encoding="utf-8"?>
<!-- Generator: Adobe Illustrator 21.0.0, SVG Export Plug-In . SVG Version: 6.00 Build 0)  -->
<svg version="1.1" id="Layer_1" xmlns="http://www.w3.org/2000/svg" xmlns:xlink="http://www.w3.org/1999/xlink" x="0px" y="0px"
	 viewBox="0 0 512 512" style="enable-background:new 0 0 512 512;" xml:space="preserve">
<style type="text/css">
	.st0{fill:#FCFCFC;}
</style>
<path class="st0" d="M368.5,275c14.8-36.4,7.4-79.8-22.1-109.3c-39.3-39.4-103.1-39.4-142.4,0l-26.2,26.3l99.1,99.1
	C298.5,261.9,338.5,254.8,368.5,275z M266.4,312.3L163.2,209.1c-12.8,21.2-10.2,49.2,8.1,67.5l16.2,16.2l-48.3,41.9
	c-4,3.5-4.3,9.7-0.5,13.5l25,25.1c3.7,3.8,9.9,3.6,13.4-0.5l41.8-48.4l16.7,16.7c9.2,9.2,20.9,14.3,32.9,15.6
	c-3.3-8-5.2-16.7-5.2-25.8C263.5,324.5,264.7,318.3,266.4,312.3L266.4,312.3z M330.9,286c-24.8,0-45,20.1-45,45s20.1,45,45,45
	c24.8,0,45-20.1,45-45S355.8,286,330.9,286z"/>
</svg>
